<svg xmlns="http://www.w3.org/2000/svg" xmlns:xlink="http://www.w3.org/1999/xlink" width="1000" zoomAndPan="magnify" viewBox="0 0 750 749.999995" height="1000" preserveAspectRatio="xMidYMid meet" version="1.0"><defs><clipPath id="1176c5ad48"><path d="M 347.707031 75 L 402.292969 75 L 402.292969 675 L 347.707031 675 Z M 347.707031 75 " clip-rule="nonzero"/></clipPath><clipPath id="e057bd8156"><path d="M 375 75 C 382.238281 75 389.179688 77.875 394.296875 82.992188 C 399.417969 88.113281 402.292969 95.054688 402.292969 102.292969 L 402.292969 647.707031 C 402.292969 654.945312 399.417969 661.886719 394.296875 667.007812 C 389.179688 672.125 382.238281 675 375 675 C 367.761719 675 360.820312 672.125 355.703125 667.007812 C 350.582031 661.886719 347.707031 654.945312 347.707031 647.707031 L 347.707031 102.292969 C 347.707031 95.054688 350.582031 88.113281 355.703125 82.992188 C 360.820312 77.875 367.761719 75 375 75 Z M 375 75 " clip-rule="nonzero"/></clipPath><clipPath id="8d80337d62"><path d="M 0.707031 0 L 55.292969 0 L 55.292969 600 L 0.707031 600 Z M 0.707031 0 " clip-rule="nonzero"/></clipPath><clipPath id="3e5f0cb974"><path d="M 28 0 C 35.238281 0 42.179688 2.875 47.296875 7.992188 C 52.417969 13.113281 55.292969 20.054688 55.292969 27.292969 L 55.292969 572.707031 C 55.292969 579.945312 52.417969 586.886719 47.296875 592.007812 C 42.179688 597.125 35.238281 600 28 600 C 20.761719 600 13.820312 597.125 8.703125 592.007812 C 3.582031 586.886719 0.707031 579.945312 0.707031 572.707031 L 0.707031 27.292969 C 0.707031 20.054688 3.582031 13.113281 8.703125 7.992188 C 13.820312 2.875 20.761719 0 28 0 Z M 28 0 " clip-rule="nonzero"/></clipPath><clipPath id="299ce0be49"><rect x="0" width="56" y="0" height="600"/></clipPath><clipPath id="71fe91dec8"><path d="M 132.113281 290.550781 L 617.832031 290.550781 L 617.832031 345.132812 L 132.113281 345.132812 Z M 132.113281 290.550781 " clip-rule="nonzero"/></clipPath><clipPath id="4dfdd6268e"><path d="M 617.832031 317.839844 C 617.832031 325.078125 614.957031 332.023438 609.835938 337.140625 C 604.71875 342.257812 597.777344 345.132812 590.539062 345.132812 L 159.445312 345.132812 C 152.207031 345.132812 145.265625 342.257812 140.144531 337.140625 C 135.027344 332.023438 132.152344 325.078125 132.152344 317.839844 C 132.152344 310.601562 135.027344 303.660156 140.144531 298.542969 C 145.265625 293.425781 152.207031 290.550781 159.445312 290.550781 L 590.539062 290.550781 C 597.777344 290.550781 604.71875 293.425781 609.835938 298.542969 C 614.957031 303.660156 617.832031 310.601562 617.832031 317.839844 Z M 617.832031 317.839844 " clip-rule="nonzero"/></clipPath><clipPath id="fa05ac1b23"><path d="M 0.113281 0.550781 L 485.832031 0.550781 L 485.832031 55.132812 L 0.113281 55.132812 Z M 0.113281 0.550781 " clip-rule="nonzero"/></clipPath><clipPath id="788396df94"><path d="M 485.832031 27.839844 C 485.832031 35.078125 482.957031 42.023438 477.835938 47.140625 C 472.71875 52.257812 465.777344 55.132812 458.539062 55.132812 L 27.445312 55.132812 C 20.207031 55.132812 13.265625 52.257812 8.144531 47.140625 C 3.027344 42.023438 0.152344 35.078125 0.152344 27.839844 C 0.152344 20.601562 3.027344 13.660156 8.144531 8.542969 C 13.265625 3.425781 20.207031 0.550781 27.445312 0.550781 L 458.539062 0.550781 C 465.777344 0.550781 472.71875 3.425781 477.835938 8.542969 C 482.957031 13.660156 485.832031 20.601562 485.832031 27.839844 Z M 485.832031 27.839844 " clip-rule="nonzero"/></clipPath><clipPath id="6de8fc7787"><rect x="0" width="486" y="0" height="56"/></clipPath><clipPath id="02bb4ff940"><path d="M 195 138 L 555 138 L 555 498 L 195 498 Z M 195 138 " clip-rule="nonzero"/></clipPath><clipPath id="a5a75252a2"><path d="M 527.410156 126.832031 L 566.007812 165.425781 L 222.554688 508.882812 L 183.957031 470.285156 Z M 527.410156 126.832031 " clip-rule="nonzero"/></clipPath><clipPath id="a19ac7558e"><path d="M 546.710938 146.128906 C 551.828125 151.246094 554.703125 158.1875 554.703125 165.425781 C 554.703125 172.664062 551.828125 179.609375 546.710938 184.726562 L 241.878906 489.554688 C 236.761719 494.671875 229.820312 497.550781 222.582031 497.550781 C 215.34375 497.550781 208.402344 494.671875 203.28125 489.554688 C 198.164062 484.4375 195.289062 477.496094 195.289062 470.257812 C 195.289062 463.019531 198.164062 456.078125 203.28125 450.957031 L 508.113281 146.128906 C 513.230469 141.011719 520.171875 138.136719 527.410156 138.136719 C 534.648438 138.136719 541.589844 141.011719 546.710938 146.128906 Z M 546.710938 146.128906 " clip-rule="nonzero"/></clipPath><clipPath id="68052ecff4"><path d="M 0.121094 0 L 359.878906 0 L 359.878906 359.761719 L 0.121094 359.761719 Z M 0.121094 0 " clip-rule="nonzero"/></clipPath><clipPath id="9381418abe"><path d="M 332.410156 -11.167969 L 371.007812 27.425781 L 27.554688 370.882812 L -11.042969 332.285156 Z M 332.410156 -11.167969 " clip-rule="nonzero"/></clipPath><clipPath id="7883e15aa4"><path d="M 351.710938 8.128906 C 356.828125 13.246094 359.703125 20.1875 359.703125 27.425781 C 359.703125 34.664062 356.828125 41.609375 351.710938 46.726562 L 46.878906 351.554688 C 41.761719 356.671875 34.820312 359.550781 27.582031 359.550781 C 20.34375 359.550781 13.402344 356.671875 8.28125 351.554688 C 3.164062 346.4375 0.289062 339.496094 0.289062 332.257812 C 0.289062 325.019531 3.164062 318.078125 8.28125 312.957031 L 313.113281 8.128906 C 318.230469 3.011719 325.171875 0.136719 332.410156 0.136719 C 339.648438 0.136719 346.589844 3.011719 351.710938 8.128906 Z M 351.710938 8.128906 " clip-rule="nonzero"/></clipPath><clipPath id="4e789911bc"><rect x="0" width="360" y="0" height="360"/></clipPath><clipPath id="eef0ebdd21"><path d="M 195 138 L 555 138 L 555 498 L 195 498 Z M 195 138 " clip-rule="nonzero"/></clipPath><clipPath id="2dbe58f71e"><path d="M 183.988281 165.417969 L 222.585938 126.824219 L 566.042969 470.277344 L 527.445312 508.875 Z M 183.988281 165.417969 " clip-rule="nonzero"/></clipPath><clipPath id="fa3cf5a0e5"><path d="M 203.289062 146.121094 C 208.40625 141.003906 215.347656 138.128906 222.585938 138.128906 C 229.824219 138.128906 236.765625 141.003906 241.882812 146.121094 L 546.714844 450.949219 C 551.832031 456.070312 554.707031 463.011719 554.707031 470.25 C 554.707031 477.488281 551.832031 484.429688 546.714844 489.546875 C 541.597656 494.667969 534.652344 497.542969 527.414062 497.542969 C 520.175781 497.542969 513.234375 494.667969 508.117188 489.546875 L 203.289062 184.71875 C 198.167969 179.601562 195.292969 172.660156 195.292969 165.417969 C 195.292969 158.179688 198.167969 151.238281 203.289062 146.121094 Z M 203.289062 146.121094 " clip-rule="nonzero"/></clipPath><clipPath id="4d9d2f0737"><path d="M 0.121094 0 L 359.878906 0 L 359.878906 359.761719 L 0.121094 359.761719 Z M 0.121094 0 " clip-rule="nonzero"/></clipPath><clipPath id="46f16d8063"><path d="M -11.011719 27.417969 L 27.585938 -11.175781 L 371.042969 332.277344 L 332.445312 370.875 Z M -11.011719 27.417969 " clip-rule="nonzero"/></clipPath><clipPath id="4527f4ed2a"><path d="M 8.289062 8.121094 C 13.40625 3.003906 20.347656 0.128906 27.585938 0.128906 C 34.824219 0.128906 41.765625 3.003906 46.882812 8.121094 L 351.714844 312.949219 C 356.832031 318.070312 359.707031 325.011719 359.707031 332.25 C 359.707031 339.488281 356.832031 346.429688 351.714844 351.546875 C 346.597656 356.667969 339.652344 359.542969 332.414062 359.542969 C 325.175781 359.542969 318.234375 356.667969 313.117188 351.546875 L 8.289062 46.71875 C 3.167969 41.601562 0.292969 34.660156 0.292969 27.417969 C 0.292969 20.179688 3.167969 13.238281 8.289062 8.121094 Z M 8.289062 8.121094 " clip-rule="nonzero"/></clipPath><clipPath id="8698e2bb59"><rect x="0" width="360" y="0" height="360"/></clipPath><clipPath id="9515bb1aae"><path d="M 265.03125 576.988281 L 484.855469 576.988281 L 484.855469 625.085938 L 265.03125 625.085938 Z M 265.03125 576.988281 " clip-rule="nonzero"/></clipPath><clipPath id="b0e0cf6960"><path d="M 484.855469 601.039062 C 484.855469 614.320312 474.089844 625.085938 460.804688 625.085938 L 289.1875 625.085938 C 275.902344 625.085938 265.136719 614.320312 265.136719 601.039062 C 265.136719 587.757812 275.902344 576.988281 289.1875 576.988281 L 460.804688 576.988281 C 474.089844 576.988281 484.855469 587.757812 484.855469 601.039062 Z M 484.855469 601.039062 " clip-rule="nonzero"/></clipPath><clipPath id="8987eeebc4"><path d="M 0.03125 0.988281 L 219.855469 0.988281 L 219.855469 49.085938 L 0.03125 49.085938 Z M 0.03125 0.988281 " clip-rule="nonzero"/></clipPath><clipPath id="409467eb61"><path d="M 219.855469 25.039062 C 219.855469 38.320312 209.089844 49.085938 195.804688 49.085938 L 24.1875 49.085938 C 10.902344 49.085938 0.136719 38.320312 0.136719 25.039062 C 0.136719 11.757812 10.902344 0.988281 24.1875 0.988281 L 195.804688 0.988281 C 209.089844 0.988281 219.855469 11.757812 219.855469 25.039062 Z M 219.855469 25.039062 " clip-rule="nonzero"/></clipPath><clipPath id="e59f9448fe"><rect x="0" width="220" y="0" height="50"/></clipPath></defs><g clip-path="url(#1176c5ad48)"><g clip-path="url(#e057bd8156)"><g transform="matrix(1, 0, 0, 1, 347, 75)"><g clip-path="url(#299ce0be49)"><g clip-path="url(#8d80337d62)"><g clip-path="url(#3e5f0cb974)"><path fill="#ffffff" d="M 0.707031 0 L 55.292969 0 L 55.292969 600.003906 L 0.707031 600.003906 Z M 0.707031 0 " fill-opacity="1" fill-rule="nonzero"/></g></g></g></g></g></g><g clip-path="url(#71fe91dec8)"><g clip-path="url(#4dfdd6268e)"><g transform="matrix(1, 0, 0, 1, 132, 290)"><g clip-path="url(#6de8fc7787)"><g clip-path="url(#fa05ac1b23)"><g clip-path="url(#788396df94)"><path fill="#ffffff" d="M 485.832031 0.550781 L 485.832031 55.132812 L 0.113281 55.132812 L 0.113281 0.550781 Z M 485.832031 0.550781 " fill-opacity="1" fill-rule="nonzero"/></g></g></g></g></g></g><g clip-path="url(#02bb4ff940)"><g clip-path="url(#a5a75252a2)"><g clip-path="url(#a19ac7558e)"><g transform="matrix(1, 0, 0, 1, 195, 138)"><g clip-path="url(#4e789911bc)"><g clip-path="url(#68052ecff4)"><g clip-path="url(#9381418abe)"><g clip-path="url(#7883e15aa4)"><path fill="#ffffff" d="M 332.410156 -11.167969 L 371.007812 27.425781 L 27.554688 370.882812 L -11.042969 332.285156 Z M 332.410156 -11.167969 " fill-opacity="1" fill-rule="nonzero"/></g></g></g></g></g></g></g></g><g clip-path="url(#eef0ebdd21)"><g clip-path="url(#2dbe58f71e)"><g clip-path="url(#fa3cf5a0e5)"><g transform="matrix(1, 0, 0, 1, 195, 138)"><g clip-path="url(#8698e2bb59)"><g clip-path="url(#4d9d2f0737)"><g clip-path="url(#46f16d8063)"><g clip-path="url(#4527f4ed2a)"><path fill="#ffffff" d="M -11.011719 27.417969 L 27.585938 -11.175781 L 371.042969 332.277344 L 332.445312 370.875 Z M -11.011719 27.417969 " fill-opacity="1" fill-rule="nonzero"/></g></g></g></g></g></g></g></g><g clip-path="url(#9515bb1aae)"><g clip-path="url(#b0e0cf6960)"><g transform="matrix(1, 0, 0, 1, 265, 576)"><g clip-path="url(#e59f9448fe)"><g clip-path="url(#8987eeebc4)"><g clip-path="url(#409467eb61)"><path fill="#ffffff" d="M 219.855469 0.988281 L 219.855469 49.085938 L 0.222656 49.085938 L 0.222656 0.988281 Z M 219.855469 0.988281 " fill-opacity="1" fill-rule="nonzero"/></g></g></g></g></g></g></svg>